<svg width="640" height="640" viewBox="0 0 640 640" xmlns="http://www.w3.org/2000/svg"><rect width="100%" height="100%" fill="white"/><g><polyline data-points="0,0.25 12,0.25" data-type="line" data-label="" points="80,310 560,310" fill="none" stroke="hsl(70.9090909090919, 100%, 50%)" stroke-width="6"/></g><g><polyline data-points="0,-0.25 11.95,-0.25" data-type="line" data-label="" points="80,330 558,330" fill="none" stroke="hsl(16.363636363636033, 100%, 50%)" stroke-width="6"/></g><g><polyline data-points="0,-0.25 11.95,-0.25" data-type="line" data-label="" points="80,330 558,330" fill="none" stroke="rgba(255,68,0,0.45)" stroke-width="6" stroke-dasharray="0.15 0.15"/></g><g><polyline data-points="0,-0.25 0.7994128088788834,-0.25 0.7995922283881136,-0.24998368913552457 0.7997390261683927,-0.24993475654209824 0.7998532022197207,-0.2498532022197209 0.799934756542098,-0.24973902616839275 0.7999836891355243,-0.24959222838811368 0.7999999999999998,-0.24941280887888367 0.8000163108644753,-0.2492333893696537 0.8000652434579018,-0.24908659158937463 0.800146797780279,-0.24897241553804642 0.8002609738316071,-0.24889086121566917 0.8004077716118863,-0.2488419286222428 0.8005871911211162,-0.24882561775776732 1.2494128088788834,-0.24882561775776732 1.2495922283881136,-0.2488419286222428 1.2497390261683927,-0.24889086121566917 1.2498532022197206,-0.2489724155380464 1.249934756542098,-0.2490865915893746 1.2499836891355243,-0.24923338936965367 1.2499999999999998,-0.24941280887888367 1.2500163108644753,-0.24959222838811368 1.2500652434579018,-0.24973902616839277 1.2501467977802787,-0.2498532022197209 1.2502609738316073,-0.24993475654209818 1.2504077716118862,-0.24998368913552454 1.2505871911211162,-0.25 1.6988597431713734,-0.25 1.6992081549801206,-0.24996832619920484 1.6994932191872774,-0.24987330479681935 1.699714935792843,-0.24971493579284343 1.699873304796819,-0.2494932191872772 1.6999683261992047,-0.24920815498012067 1.6999999999999997,-0.24885974317137372 1.700031673800795,-0.24851133136262682 1.7001266952031806,-0.24822626715547025 1.7002850642071565,-0.248004550549904 1.7005067808127228,-0.24784618154592813 1.7007918450198791,-0.24775116014354262 1.701140256828626,-0.24771948634274743 2.148859743171373,-0.24771948634274743 2.1492081549801205,-0.24775116014354262 2.149493219187277,-0.2478461815459282 2.1497149357928427,-0.248004550549904 2.149873304796819,-0.24822626715547025 2.1499683261992044,-0.24851133136262682 2.1499999999999995,-0.24885974317137372 2.150031673800795,-0.24920815498012067 2.1501266952031806,-0.24949321918727724 2.1502850642071563,-0.24971493579284343 2.150506780812722,-0.2498733047968193 2.150791845019879,-0.24996832619920484 2.1511402568286258,-0.25 2.598372945046078,-0.25 2.5988701007264434,-0.24995480402905776 2.5992768644649233,-0.249819216116231 2.5995932362615193,-0.24959323626151964 2.599819216116231,-0.2492768644649238 2.5999548040290574,-0.2488701007264435 2.5999999999999996,-0.2483729450460786 2.6000451959709423,-0.24787578936571372 2.600180783883769,-0.2474690256272334 2.60040676373848,-0.24715265383063753 2.600723135535076,-0.24692667397592624 2.6011298992735563,-0.24679108606309946 2.601627054953921,-0.2467458900921572 3.0483729450460784,-0.2467458900921572 3.0488701007264436,-0.2467910860630995 3.049276864464924,-0.2469266739759263 3.0495932362615195,-0.24715265383063756 3.049819216116231,-0.24746902562723339 3.0499548040290576,-0.24787578936571375 3.05,-0.2483729450460786 3.0500451959709425,-0.2488701007264435 3.050180783883769,-0.24927686446492386 3.05040676373848,-0.24959323626151964 3.050723135535076,-0.24981921611623095 3.0511298992735565,-0.24995480402905773 3.0516270549539213,-0.25 3.4979807054406007,-0.25 3.498597712111528,-0.24994390848446116 3.499102535751378,-0.24977563393784463 3.49949517636015,-0.2494951763601503 3.499775633937844,-0.24910253575137833 3.4999439084844606,-0.24859771211152865 3.4999999999999996,-0.24798070544060125 3.5000560915155385,-0.2473636987696739 3.500224366062155,-0.24685887512982418 3.500504823639849,-0.2464662345210522 3.500897464248621,-0.24618577694335791 3.501402287888471,-0.24601750239674136 3.5020192945593984,-0.24596141088120252 3.9479807054406004,-0.24596141088120252 3.948597712111528,-0.2460175023967414 3.949102535751378,-0.24618577694335797 3.9494951763601494,-0.2464662345210522 3.949775633937844,-0.24685887512982418 3.9499439084844603,-0.24736369876967387 3.9499999999999993,-0.24798070544060125 3.9500560915155387,-0.24859771211152867 3.950224366062155,-0.24910253575137836 3.9505048236398492,-0.2494951763601503 3.950897464248621,-0.24977563393784458 3.9514022878884707,-0.24994390848446116 3.952019294559398,-0.25 4.397705819895078,-0.25 4.398406819371582,-0.24993627277486333 4.398980364397813,-0.24974509109945328 4.399426454973769,-0.24942645497376978 4.399745091099453,-0.24898036439781296 4.3999362727748625,-0.2484068193715827 4.3999999999999995,-0.24770581989507912 4.400063727225136,-0.24700482041857552 4.400254908900547,-0.24643127539234533 4.40057354502623,-0.24598518481638845 4.401019635602188,-0.24566654869070498 4.401593180628417,-0.24547536701529493 4.402294180104921,-0.24541163979015823 4.847705819895078,-0.24541163979015823 4.848406819371582,-0.24547536701529496 4.848980364397813,-0.245666548690705 4.84942645497377,-0.24598518481638845 4.849745091099454,-0.24643127539234527 4.849936272774864,-0.24700482041857552 4.85,-0.24770581989507912 4.850063727225137,-0.24840681937158274 4.850254908900547,-0.24898036439781296 4.85057354502623,-0.24942645497376978 4.851019635602187,-0.24974509109945325 4.851593180628417,-0.2499362727748633 4.852294180104921,-0.25 5.297564263758249,-0.25 5.298308516498785,-0.2499323406599514 5.298917450559222,-0.24972936263980555 5.299391065939562,-0.2493910659395624 5.299729362639805,-0.24891745055922204 5.299932340659951,-0.24830851649878444 5.3,-0.24756426375824958 5.3000676593400495,-0.24682001101771475 5.300270637360195,-0.24621107695727715 5.300608934060437,-0.24573746157693677 5.301082549440778,-0.24539916487669367 5.301691483501216,-0.24519618685654782 5.30243573624175,-0.24512852751649916 5.74756426375825,-0.24512852751649916 5.748308516498786,-0.24519618685654782 5.748917450559222,-0.24539916487669367 5.749391065939562,-0.24573746157693677 5.749729362639806,-0.24621107695727715 5.749932340659951,-0.24682001101771472 5.75,-0.24756426375824958 5.75006765934005,-0.24830851649878447 5.750270637360196,-0.2489174505592221 5.750608934060438,-0.2493910659395624 5.751082549440778,-0.24972936263980552 5.751691483501215,-0.2499323406599514 5.75243573624175,-0.25 6.197564263758249,-0.25 6.198308516498785,-0.2499323406599514 6.198917450559223,-0.24972936263980555 6.199391065939562,-0.2493910659395624 6.199729362639806,-0.24891745055922204 6.1999323406599505,-0.24830851649878444 6.199999999999999,-0.24756426375824958 6.200067659340048,-0.24682001101771475 6.200270637360195,-0.24621107695727715 6.200608934060437,-0.24573746157693677 6.201082549440778,-0.24539916487669367 6.201691483501215,-0.24519618685654782 6.20243573624175,-0.24512852751649916 6.647564263758249,-0.24512852751649916 6.648308516498784,-0.24519618685654782 6.648917450559223,-0.24539916487669367 6.649391065939562,-0.24573746157693677 6.649729362639805,-0.24621107695727715 6.649932340659951,-0.24682001101771472 6.6499999999999995,-0.24756426375824958 6.650067659340048,-0.24830851649878447 6.650270637360195,-0.2489174505592221 6.650608934060437,-0.2493910659395624 6.651082549440778,-0.24972936263980552 6.6516914835012155,-0.2499323406599514 6.65243573624175,-0.25 7.0977058198950775,-0.25 7.098406819371582,-0.24993627277486333 7.0989803643978115,-0.24974509109945328 7.099426454973768,-0.24942645497376978 7.099745091099452,-0.24898036439781296 7.099936272774862,-0.2484068193715827 7.099999999999999,-0.24770581989507912 7.100063727225136,-0.24700482041857552 7.100254908900546,-0.24643127539234533 7.100573545026229,-0.24598518481638845 7.101019635602186,-0.24566654869070498 7.1015931806284165,-0.24547536701529493 7.10229418010492,-0.24541163979015823 7.547705819895078,-0.24541163979015823 7.548406819371582,-0.24547536701529496 7.548980364397812,-0.245666548690705 7.549426454973769,-0.24598518481638845 7.549745091099451,-0.24643127539234527 7.549936272774862,-0.24700482041857552 7.549999999999999,-0.24770581989507912 7.550063727225136,-0.24840681937158274 7.550254908900546,-0.24898036439781296 7.5505735450262295,-0.24942645497376978 7.551019635602186,-0.24974509109945325 7.551593180628417,-0.2499362727748633 7.55229418010492,-0.25 7.9979807054406,-0.25 7.998597712111528,-0.24994390848446116 7.999102535751378,-0.24977563393784463 7.999495176360149,-0.2494951763601503 7.999775633937844,-0.24910253575137833 7.99994390848446,-0.24859771211152865 7.999999999999999,-0.24798070544060125 8.000056091515537,-0.2473636987696739 8.000224366062154,-0.24685887512982418 8.000504823639849,-0.2464662345210522 8.000897464248622,-0.24618577694335791 8.001402287888471,-0.24601750239674136 8.002019294559398,-0.24596141088120252 8.447980705440601,-0.24596141088120252 8.44859771211153,-0.2460175023967414 8.44910253575138,-0.24618577694335797 8.449495176360148,-0.2464662345210522 8.449775633937843,-0.24685887512982418 8.44994390848446,-0.24736369876967387 8.45,-0.24798070544060125 8.45005609151554,-0.24859771211152867 8.450224366062155,-0.24910253575137836 8.450504823639848,-0.2494951763601503 8.450897464248621,-0.24977563393784458 8.45140228788847,-0.24994390848446116 8.452019294559397,-0.25 8.898372945046077,-0.25 8.898870100726443,-0.24995480402905776 8.899276864464923,-0.249819216116231 8.899593236261518,-0.24959323626151964 8.89981921611623,-0.2492768644649238 8.899954804029058,-0.2488701007264435 8.899999999999999,-0.2483729450460786 8.900045195970941,-0.24787578936571372 8.90018078388377,-0.2474690256272334 8.900406763738479,-0.24715265383063753 8.900723135535076,-0.24692667397592624 8.901129899273556,-0.24679108606309946 8.90162705495392,-0.2467458900921572 9.348372945046076,-0.2467458900921572 9.348870100726444,-0.2467910860630995 9.349276864464922,-0.2469266739759263 9.349593236261518,-0.24715265383063756 9.349819216116229,-0.24746902562723339 9.349954804029055,-0.24787578936571375 9.349999999999998,-0.2483729450460786 9.35004519597094,-0.2488701007264435 9.350180783883768,-0.24927686446492386 9.350406763738478,-0.24959323626151964 9.350723135535073,-0.24981921611623095 9.351129899273555,-0.24995480402905773 9.35162705495392,-0.25 9.798859743171374,-0.25 9.799208154980121,-0.24996832619920484 9.799493219187278,-0.24987330479681935 9.799714935792844,-0.24971493579284343 9.79987330479682,-0.2494932191872772 9.799968326199206,-0.24920815498012067 9.8,-0.24885974317137372 9.800031673800795,-0.24851133136262682 9.800126695203183,-0.24822626715547025 9.800285064207158,-0.248004550549904 9.800506780812725,-0.24784618154592813 9.80079184501988,-0.24775116014354262 9.801140256828628,-0.24771948634274743 10.248859743171373,-0.24771948634274743 10.24920815498012,-0.24775116014354262 10.24949321918728,-0.2478461815459282 10.249714935792843,-0.248004550549904 10.24987330479682,-0.24822626715547025 10.249968326199205,-0.24851133136262682 10.25,-0.24885974317137372 10.250031673800796,-0.24920815498012067 10.250126695203182,-0.24949321918727724 10.250285064207157,-0.24971493579284343 10.250506780812724,-0.2498733047968193 10.25079184501988,-0.24996832619920484 10.251140256828627,-0.25 10.699412808878883,-0.25 10.699592228388115,-0.24998368913552457 10.699739026168393,-0.24993475654209824 10.699853202219721,-0.2498532022197209 10.699934756542097,-0.24973902616839275 10.699983689135525,-0.24959222838811368 10.7,-0.24941280887888367 10.700016310864477,-0.2492333893696537 10.700065243457903,-0.24908659158937463 10.700146797780278,-0.24897241553804642 10.700260973831607,-0.24889086121566917 10.700407771611886,-0.2488419286222428 10.700587191121116,-0.24882561775776732 11.149412808878882,-0.24882561775776732 11.149592228388112,-0.2488419286222428 11.149739026168392,-0.24889086121566917 11.149853202219719,-0.2489724155380464 11.149934756542097,-0.2490865915893746 11.149983689135524,-0.24923338936965367 11.149999999999999,-0.24941280887888367 11.150016310864475,-0.24959222838811368 11.150065243457902,-0.24973902616839277 11.150146797780277,-0.2498532022197209 11.150260973831607,-0.24993475654209818 11.150407771611885,-0.24998368913552454 11.150587191121115,-0.25 11.95,-0.25" data-type="line" data-label="" points="80,330 111.97651235515534,330 111.98368913552454,329.999347565421 111.9895610467357,329.9973902616839 111.99412808878883,329.99412808878884 111.99739026168392,329.98956104673573 111.99934756542098,329.98368913552457 112,329.97651235515536 112.00065243457901,329.96933557478616 112.00260973831607,329.963463663575 112.00587191121116,329.95889662152183 112.01043895326428,329.95563444862677 112.01631086447546,329.9536771448897 112.02348764484465,329.9530247103107 129.97651235515534,329.9530247103107 129.98368913552454,329.9536771448897 129.9895610467357,329.95563444862677 129.99412808878884,329.95889662152183 129.9973902616839,329.963463663575 129.99934756542098,329.96933557478616 130,329.97651235515536 130.00065243457902,329.98368913552457 130.00260973831607,329.98956104673573 130.00587191121116,329.99412808878884 130.0104389532643,329.9973902616839 130.01631086447546,329.999347565421 130.02348764484464,330 147.95438972685494,330 147.96832619920482,329.9987330479682 147.9797287674911,329.99493219187275 147.9885974317137,329.98859743171374 147.99493219187275,329.9797287674911 147.9987330479682,329.96832619920485 148,329.95438972685497 148.0012669520318,329.9404532545051 148.00506780812722,329.92905068621883 148.01140256828626,329.92018202199614 148.02027123250892,329.91384726183713 148.03167380079515,329.9100464057417 148.04561027314503,329.9087794537099 165.9543897268549,329.9087794537099 165.96832619920482,329.9100464057417 165.97972876749108,329.91384726183713 165.9885974317137,329.92018202199614 165.99493219187275,329.92905068621883 165.9987330479682,329.9404532545051 165.99999999999997,329.95438972685497 166.0012669520318,329.96832619920485 166.00506780812722,329.9797287674911 166.01140256828626,329.98859743171374 166.0202712325089,329.99493219187275 166.03167380079515,329.9987330479682 166.04561027314503,330 183.93491780184314,330 183.95480402905775,329.9981921611623 183.97107457859693,329.99276864464923 183.98372945046077,329.98372945046077 183.99276864464923,329.9710745785969 183.9981921611623,329.95480402905775 184,329.93491780184314 184.0018078388377,329.91503157462853 184.00723135535077,329.89876102508936 184.0162705495392,329.8861061532255 184.02892542140304,329.87706695903705 184.04519597094225,329.871643442524 184.06508219815686,329.8698356036863 201.93491780184314,329.8698356036863 201.95480402905775,329.871643442524 201.97107457859696,329.87706695903705 201.98372945046077,329.8861061532255 201.99276864464923,329.89876102508936 201.9981921611623,329.91503157462853 202,329.93491780184314 202.0018078388377,329.95480402905775 202.00723135535077,329.9710745785969 202.0162705495392,329.98372945046077 202.02892542140304,329.99276864464923 202.04519597094225,329.9981921611623 202.06508219815686,330 219.91922821762404,330 219.94390848446113,329.99775633937844 219.9641014300551,329.99102535751376 219.979807054406,329.979807054406 219.99102535751376,329.9641014300551 219.9977563393784,329.94390848446113 219.99999999999997,329.91922821762404 220.00224366062153,329.89454795078694 220.0089746424862,329.87435500519297 220.02019294559398,329.8586493808421 220.03589856994483,329.8474310777343 220.05609151553884,329.84070009586964 220.08077178237593,329.8384564352481 237.919228217624,329.8384564352481 237.9439084844611,329.84070009586964 237.9641014300551,329.8474310777343 237.97980705440597,329.8586493808421 237.99102535751376,329.87435500519297 237.9977563393784,329.89454795078694 237.99999999999997,329.91922821762404 238.00224366062156,329.94390848446113 238.0089746424862,329.9641014300551 238.02019294559398,329.979807054406 238.03589856994483,329.99102535751376 238.05609151553884,329.99775633937844 238.08077178237593,330 255.90823279580314,330 255.93627277486326,329.99745091099453 255.95921457591254,329.9898036439781 255.97705819895077,329.9770581989508 255.98980364397812,329.95921457591254 255.9974509109945,329.9362727748633 255.99999999999997,329.90823279580314 256.00254908900547,329.88019281674303 256.0101963560219,329.8572510156938 256.0229418010492,329.8394073926555 256.0407854240875,329.8266619476282 256.0637272251367,329.8190146806118 256.0917672041968,329.81646559160635 273.90823279580314,329.81646559160635 273.93627277486326,329.8190146806118 273.95921457591254,329.8266619476282 273.9770581989508,329.8394073926555 273.9898036439781,329.8572510156938 273.99745091099453,329.88019281674303 274,329.90823279580314 274.00254908900547,329.9362727748633 274.0101963560219,329.95921457591254 274.0229418010492,329.9770581989508 274.04078542408746,329.9898036439781 274.0637272251367,329.99745091099453 274.0917672041968,330 291.90257055033,330 291.93234065995136,329.99729362639806 291.95669802236887,329.98917450559225 291.9756426375825,329.9756426375825 291.98917450559225,329.95669802236887 291.997293626398,329.93234065995136 292,329.90257055033 292.002706373602,329.8728004407086 292.0108254944078,329.8484430782911 292.0243573624175,329.82949846307747 292.04330197763113,329.8159665950677 292.06765934004864,329.8078474742619 292.09742944967,329.80514110065997 309.90257055033,329.80514110065997 309.9323406599514,329.8078474742619 309.95669802236887,329.8159665950677 309.9756426375825,329.82949846307747 309.98917450559225,329.8484430782911 309.99729362639806,329.8728004407086 310,329.90257055033 310.002706373602,329.93234065995136 310.01082549440787,329.95669802236887 310.0243573624175,329.9756426375825 310.04330197763113,329.98917450559225 310.06765934004864,329.99729362639806 310.09742944967,330 327.90257055033,330 327.93234065995136,329.99729362639806 327.95669802236887,329.98917450559225 327.9756426375825,329.9756426375825 327.98917450559225,329.95669802236887 327.997293626398,329.93234065995136 328,329.90257055033 328.00270637360194,329.8728004407086 328.01082549440775,329.8484430782911 328.0243573624175,329.82949846307747 328.04330197763113,329.8159665950677 328.06765934004864,329.8078474742619 328.09742944967,329.80514110065997 345.90257055033,329.80514110065997 345.93234065995136,329.8078474742619 345.9566980223689,329.8159665950677 345.9756426375825,329.82949846307747 345.9891745055922,329.8484430782911 345.997293626398,329.8728004407086 346,329.90257055033 346.00270637360194,329.93234065995136 346.0108254944078,329.95669802236887 346.0243573624175,329.9756426375825 346.04330197763113,329.98917450559225 346.06765934004864,329.99729362639806 346.09742944967,330 363.9082327958031,330 363.93627277486326,329.99745091099453 363.9592145759125,329.9898036439781 363.9770581989507,329.9770581989508 363.98980364397806,329.95921457591254 363.9974509109945,329.9362727748633 363.99999999999994,329.90823279580314 364.0025490890054,329.88019281674303 364.0101963560218,329.8572510156938 364.02294180104917,329.8394073926555 364.04078542408746,329.8266619476282 364.06372722513663,329.8190146806118 364.0917672041968,329.81646559160635 381.9082327958031,329.81646559160635 381.93627277486326,329.8190146806118 381.9592145759125,329.8266619476282 381.9770581989508,329.8394073926555 381.98980364397806,329.8572510156938 381.9974509109945,329.88019281674303 381.99999999999994,329.90823279580314 382.0025490890054,329.9362727748633 382.0101963560218,329.95921457591254 382.02294180104917,329.9770581989508 382.04078542408746,329.9898036439781 382.0637272251367,329.99745091099453 382.0917672041968,330 399.919228217624,330 399.94390848446113,329.99775633937844 399.9641014300551,329.99102535751376 399.97980705440597,329.979807054406 399.99102535751376,329.9641014300551 399.9977563393784,329.94390848446113 399.99999999999994,329.91922821762404 400.0022436606215,329.89454795078694 400.0089746424862,329.87435500519297 400.020192945594,329.8586493808421 400.0358985699449,329.8474310777343 400.0560915155388,329.84070009586964 400.0807717823759,329.8384564352481 417.91922821762404,329.8384564352481 417.9439084844612,329.84070009586964 417.96410143005517,329.8474310777343 417.9798070544059,329.8586493808421 417.99102535751376,329.87435500519297 417.9977563393784,329.89454795078694 418,329.91922821762404 418.0022436606216,329.94390848446113 418.00897464248624,329.9641014300551 418.0201929455939,329.979807054406 418.03589856994483,329.99102535751376 418.0560915155388,329.99775633937844 418.0807717823759,330 435.9349178018431,330 435.9548040290577,329.9981921611623 435.9710745785969,329.99276864464923 435.9837294504607,329.98372945046077 435.9927686446492,329.9710745785969 435.9981921611623,329.95480402905775 435.99999999999994,329.93491780184314 436.00180783883764,329.91503157462853 436.00723135535077,329.89876102508936 436.0162705495392,329.8861061532255 436.028925421403,329.87706695903705 436.04519597094225,329.871643442524 436.0650821981568,329.8698356036863 453.9349178018431,329.8698356036863 453.95480402905775,329.871643442524 453.9710745785969,329.87706695903705 453.9837294504607,329.8861061532255 453.9927686446492,329.89876102508936 453.9981921611622,329.91503157462853 453.9999999999999,329.93491780184314 454.00180783883764,329.95480402905775 454.00723135535077,329.9710745785969 454.0162705495391,329.98372945046077 454.02892542140296,329.99276864464923 454.04519597094225,329.9981921611623 454.0650821981568,330 471.95438972685497,330 471.96832619920485,329.9987330479682 471.9797287674911,329.99493219187275 471.98859743171374,329.98859743171374 471.9949321918728,329.9797287674911 471.99873304796824,329.96832619920485 472,329.95438972685497 472.0012669520318,329.9404532545051 472.0050678081273,329.92905068621883 472.0114025682863,329.92018202199614 472.020271232509,329.91384726183713 472.0316738007952,329.9100464057417 472.04561027314514,329.9087794537099 489.9543897268549,329.9087794537099 489.96832619920485,329.9100464057417 489.97972876749117,329.91384726183713 489.98859743171374,329.92018202199614 489.9949321918728,329.92905068621883 489.99873304796824,329.9404532545051 490,329.95438972685497 490.00126695203187,329.96832619920485 490.00506780812725,329.9797287674911 490.01140256828626,329.98859743171374 490.020271232509,329.99493219187275 490.03167380079515,329.9987330479682 490.0456102731451,330 507.9765123551553,330 507.98368913552457,329.999347565421 507.98956104673573,329.9973902616839 507.99412808878884,329.99412808878884 507.9973902616839,329.98956104673573 507.999347565421,329.98368913552457 508,329.97651235515536 508.0006524345791,329.96933557478616 508.0026097383161,329.963463663575 508.0058719112111,329.95889662152183 508.01043895326427,329.95563444862677 508.01631086447543,329.9536771448897 508.02348764484464,329.9530247103107 525.9765123551553,329.9530247103107 525.9836891355245,329.9536771448897 525.9895610467356,329.95563444862677 525.9941280887888,329.95889662152183 525.9973902616839,329.963463663575 525.999347565421,329.96933557478616 526,329.97651235515536 526.000652434579,329.98368913552457 526.0026097383161,329.98956104673573 526.0058719112111,329.99412808878884 526.0104389532643,329.9973902616839 526.0163108644754,329.999347565421 526.0234876448446,330 558,330" fill="none" stroke="rgba(255,68,0,0.55)" stroke-width="6" stroke-dasharray="0.1 0.1"/></g><g><rect data-type="rect" data-label="" data-x="6" data-y="0" x="40" y="200" width="560" height="240" fill="rgba(30,41,59,0.03)" stroke="rgba(30,41,59,0.55)" stroke-width="0.025"/></g><g><rect data-type="rect" data-label="" data-x="0" data-y="0.25" x="72" y="304" width="16" height="12" fill="rgba(255,0,0,0.25)" stroke="rgba(255,0,0,0.5)" stroke-width="0.025"/></g><g><rect data-type="rect" data-label="" data-x="12" data-y="0.25" x="552" y="304" width="16" height="12" fill="rgba(255,0,0,0.25)" stroke="rgba(255,0,0,0.5)" stroke-width="0.025"/></g><g><rect data-type="rect" data-label="" data-x="0" data-y="-0.25" x="72" y="324" width="16" height="12" fill="rgba(255,0,0,0.25)" stroke="rgba(255,0,0,0.5)" stroke-width="0.025"/></g><g><rect data-type="rect" data-label="" data-x="11.95" data-y="-0.25" x="550" y="324" width="16" height="12" fill="rgba(255,0,0,0.25)" stroke="rgba(255,0,0,0.5)" stroke-width="0.025"/></g><g><circle data-type="point" data-label="" data-x="0" data-y="-0.25" cx="80" cy="330" r="3" fill="hsl(16.363636363636033, 100%, 50%)"/></g><g><circle data-type="point" data-label="" data-x="11.95" data-y="-0.25" cx="558" cy="330" r="3" fill="hsl(16.363636363636033, 100%, 50%)"/></g><g id="crosshair" style="display: none"><line id="crosshair-h" y1="0" y2="640" stroke="#666" stroke-width="0.5"/><line id="crosshair-v" x1="0" x2="640" stroke="#666" stroke-width="0.5"/><text id="coordinates" font-family="monospace" font-size="12" fill="#666"></text></g><script><![CDATA[
              document.currentScript.parentElement.addEventListener('mousemove', (e) => {
                const svg = e.currentTarget;
                const rect = svg.getBoundingClientRect();
                const x = e.clientX - rect.left;
                const y = e.clientY - rect.top;
                const crosshair = svg.getElementById('crosshair');
                const h = svg.getElementById('crosshair-h');
                const v = svg.getElementById('crosshair-v');
                const coords = svg.getElementById('coordinates');
                
                crosshair.style.display = 'block';
                h.setAttribute('x1', '0');
                h.setAttribute('x2', '640');
                h.setAttribute('y1', y);
                h.setAttribute('y2', y);
                v.setAttribute('x1', x);
                v.setAttribute('x2', x);
                v.setAttribute('y1', '0');
                v.setAttribute('y2', '640');

                // Calculate real coordinates using inverse transformation
                const matrix = {"a":40,"c":0,"e":80,"b":0,"d":-40,"f":320};
                // Manually invert and apply the affine transform
                // Since we only use translate and scale, we can directly compute:
                // x' = (x - tx) / sx
                // y' = (y - ty) / sy
                const sx = matrix.a;
                const sy = matrix.d;
                const tx = matrix.e; 
                const ty = matrix.f;
                const realPoint = {
                  x: (x - tx) / sx,
                  y: (y - ty) / sy // Flip y back since we used negative scale
                }
                
                coords.textContent = `(${realPoint.x.toFixed(2)}, ${realPoint.y.toFixed(2)})`;
                coords.setAttribute('x', (x + 5).toString());
                coords.setAttribute('y', (y - 5).toString());
              });
              document.currentScript.parentElement.addEventListener('mouseleave', () => {
                document.currentScript.parentElement.getElementById('crosshair').style.display = 'none';
              });
            ]]></script></svg>